<svg width="55" height="56" viewBox="0 0 55 56" fill="none" xmlns="http://www.w3.org/2000/svg">
<path d="M27.4928 2.21875C27.7207 2.21875 27.9393 2.30929 28.1005 2.47046C28.2617 2.63162 28.3522 2.8502 28.3522 3.07812V7.375C28.3522 7.60292 28.2617 7.82151 28.1005 7.98267C27.9393 8.14383 27.7207 8.23438 27.4928 8.23438C27.2649 8.23438 27.0463 8.14383 26.8852 7.98267C26.724 7.82151 26.6334 7.60292 26.6334 7.375V3.07812C26.6334 2.8502 26.724 2.63162 26.8852 2.47046C27.0463 2.30929 27.2649 2.21875 27.4928 2.21875ZM12.9114 13.7758C12.9907 13.8576 13.0855 13.9228 13.1903 13.9676C13.2951 14.0124 13.4077 14.0359 13.5217 14.0368C13.6356 14.0377 13.7486 14.0159 13.8541 13.9727C13.9595 13.9295 14.0553 13.8657 14.1359 13.7852C14.2165 13.7046 14.2802 13.6088 14.3234 13.5033C14.3666 13.3979 14.3885 13.2849 14.3876 13.171C14.3867 13.057 14.3632 12.9444 14.3184 12.8396C14.2736 12.7348 14.2084 12.64 14.1266 12.5606L11.0874 9.52344C11.0079 9.44198 10.9131 9.3771 10.8084 9.33256C10.7037 9.28802 10.5912 9.26472 10.4775 9.264C10.3637 9.26328 10.2509 9.28516 10.1457 9.32836C10.0404 9.37157 9.94481 9.43524 9.86436 9.51569C9.78392 9.59614 9.72024 9.69176 9.67704 9.79701C9.63383 9.90225 9.61196 10.015 9.61268 10.1288C9.6134 10.2426 9.6367 10.3551 9.68124 10.4598C9.72577 10.5645 9.79065 10.6593 9.87211 10.7387L12.9114 13.7758ZM7.73416 26.2871L3.43729 26.2888C3.20936 26.2889 2.9908 26.3795 2.82968 26.5407C2.66855 26.7019 2.57807 26.9205 2.57813 27.1484C2.57818 27.3763 2.66878 27.5949 2.82998 27.756C2.99119 27.9171 3.20979 28.0076 3.43771 28.0076H3.43729L7.73416 28.0058C7.84701 28.0058 7.95876 27.9836 8.06301 27.9403C8.16727 27.8971 8.26199 27.8338 8.34177 27.754C8.42155 27.6742 8.48483 27.5794 8.52799 27.4751C8.57115 27.3709 8.59335 27.2591 8.59332 27.1463C8.59329 27.0334 8.57104 26.9217 8.52782 26.8174C8.48461 26.7131 8.42128 26.6184 8.34146 26.5386C8.26164 26.4589 8.16689 26.3956 8.06262 26.3524C7.95834 26.3093 7.84659 26.2871 7.73373 26.2871H7.73416ZM42.0882 40.5055C42.0089 40.4237 41.914 40.3585 41.8093 40.3136C41.7045 40.2688 41.5918 40.2453 41.4779 40.2444C41.3639 40.2436 41.251 40.2654 41.1455 40.3086C41.0401 40.3518 40.9443 40.4155 40.8637 40.4961C40.7831 40.5767 40.7193 40.6725 40.6761 40.7779C40.6329 40.8834 40.6111 40.9963 40.612 41.1103C40.6128 41.2242 40.6364 41.3369 40.6812 41.4417C40.726 41.5464 40.7912 41.6413 40.8729 41.7206L43.9122 44.7578C43.9916 44.8393 44.0864 44.9042 44.1911 44.9487C44.2958 44.9932 44.4083 45.0165 44.5221 45.0173C44.6359 45.018 44.7486 44.9961 44.8539 44.9529C44.9591 44.9097 45.0548 44.846 45.1352 44.7656C45.2157 44.6851 45.2793 44.5895 45.3225 44.4842C45.3657 44.379 45.3876 44.2662 45.3869 44.1524C45.3862 44.0387 45.3629 43.9262 45.3183 43.8215C45.2738 43.7168 45.2089 43.622 45.1275 43.5426L42.0882 40.5055ZM12.9114 40.5055L9.87211 43.5426C9.79065 43.622 9.72577 43.7168 9.68124 43.8215C9.6367 43.9262 9.6134 44.0387 9.61268 44.1524C9.61196 44.2662 9.63383 44.379 9.67704 44.4842C9.72024 44.5895 9.78392 44.6851 9.86436 44.7656C9.94481 44.846 10.0404 44.9097 10.1457 44.9529C10.2509 44.9961 10.3637 45.018 10.4775 45.0173C10.5912 45.0165 10.7037 44.9932 10.8084 44.9487C10.9131 44.9042 11.0079 44.8393 11.0874 44.7578L14.1266 41.7206C14.2084 41.6413 14.2736 41.5464 14.3184 41.4417C14.3632 41.3369 14.3867 41.2242 14.3876 41.1103C14.3885 40.9963 14.3666 40.8834 14.3234 40.7779C14.2802 40.6725 14.2165 40.5767 14.1359 40.4961C14.0553 40.4155 13.9595 40.3518 13.8541 40.3086C13.7486 40.2654 13.6356 40.2436 13.5217 40.2444C13.4077 40.2453 13.2951 40.2688 13.1903 40.3136C13.0855 40.3585 12.9907 40.4237 12.9114 40.5055ZM51.5623 26.2737L47.2654 26.2754C47.0375 26.2755 46.8189 26.3661 46.6578 26.5273C46.4967 26.6885 46.4062 26.9071 46.4062 27.135C46.4063 27.3629 46.4969 27.5815 46.6581 27.7426C46.8193 27.9037 47.0379 27.9942 47.2658 27.9942H47.2663L51.5631 27.9924C51.7911 27.9924 52.0096 27.9018 52.1707 27.7406C52.3319 27.5794 52.4224 27.3608 52.4223 27.1328C52.4222 26.9049 52.3316 26.6864 52.1704 26.5252C52.0092 26.3641 51.7906 26.2736 51.5627 26.2737H51.5623ZM41.4718 14.0192C41.5847 14.0193 41.6965 13.9972 41.8009 13.954C41.9052 13.9108 42 13.8474 42.0798 13.7675L45.1174 10.7278C45.2786 10.5665 45.369 10.3478 45.369 10.1198C45.3689 9.89186 45.2782 9.67324 45.117 9.51209C44.9557 9.35094 44.737 9.26045 44.509 9.26053C44.2811 9.26061 44.0625 9.35126 43.9013 9.51252L40.8638 12.5522C40.7436 12.6724 40.6618 12.8256 40.6286 12.9923C40.5955 13.159 40.6125 13.3318 40.6776 13.4888C40.7427 13.6459 40.8529 13.7801 40.9943 13.8745C41.1356 13.9689 41.3018 14.0192 41.4718 14.0192ZM40.7215 33.2553C41.9324 30.9586 42.5449 28.3937 42.5024 25.7977C42.4599 23.2018 41.7639 20.6583 40.4785 18.4025C39.2717 16.2335 37.5378 14.4035 35.4369 13.0818C33.336 11.76 30.9358 10.989 28.4582 10.84H28.4565C27.8186 10.8048 27.1793 10.8048 26.5414 10.84C24.0638 10.989 21.6636 11.76 19.5627 13.0818C17.4618 14.4035 15.7278 16.2335 14.5211 18.4025C13.2357 20.6583 12.5396 23.2018 12.4972 25.7977C12.4547 28.3937 13.0672 30.9586 14.278 33.2553L19.7654 43.6809V47.7656C19.7673 49.3605 20.4016 50.8895 21.5294 52.0173C22.6571 53.145 24.1862 53.7794 25.781 53.7812H29.2185C30.8134 53.7794 32.3424 53.145 33.4702 52.0173C34.5979 50.8895 35.2323 49.3605 35.2342 47.7656V43.6809L40.7215 33.2553ZM21.4842 46.9062V44.3281H33.5154V46.9062H21.4842ZM16.0174 19.2476C17.0708 17.3195 18.5995 15.6926 20.4584 14.5214C22.3173 13.3502 24.4447 12.6735 26.6387 12.5556C27.2117 12.5237 27.7861 12.5237 28.3592 12.5556C30.5534 12.6732 32.6811 13.3498 34.5403 14.521C36.3996 15.6923 37.9286 17.3193 38.9822 19.2476C40.1253 21.2533 40.7446 23.5148 40.7828 25.8231C40.8211 28.1315 40.2769 30.4122 39.2008 32.4547L33.8561 42.6094H28.3592V35.433C28.814 35.5 29.2728 35.5362 29.7325 35.5414C30.4743 35.5769 31.2156 35.4637 31.9129 35.2084C32.6103 34.9531 33.2494 34.5608 33.7928 34.0546C36.4827 31.4212 35.501 26.3289 35.4579 26.113C35.4361 26.0021 35.3926 25.8967 35.3299 25.8027C35.2673 25.7087 35.1866 25.628 35.0926 25.5654C34.9985 25.5027 34.8931 25.4593 34.7822 25.4376C34.6713 25.416 34.5572 25.4164 34.4465 25.4391C30.7519 26.1781 28.5715 29.6817 27.4998 32.0252C26.4281 29.6817 24.2477 26.1777 20.553 25.4391C20.4423 25.4165 20.3283 25.4161 20.2175 25.4378C20.1066 25.4595 20.0011 25.503 19.9072 25.5656C19.8132 25.6282 19.7325 25.7089 19.6698 25.8028C19.607 25.8967 19.5635 26.0022 19.5417 26.113C19.4987 26.3287 18.5171 31.4212 21.2068 34.0546C21.7501 34.5608 22.3893 34.9531 23.0866 35.2084C23.7839 35.4638 24.5253 35.577 25.267 35.5414C25.7267 35.5362 26.1856 35.5 26.6404 35.433V42.6094H21.1434L15.7988 32.4547C14.7226 30.4122 14.1785 28.1315 14.2167 25.8231C14.2549 23.5148 14.8742 21.2533 16.0174 19.2476ZM28.6416 33.7462C29.2916 32.0636 30.9688 28.5204 33.901 27.3824C34.0433 28.9525 33.9502 31.4946 32.5906 32.8264C31.7249 33.6719 30.3997 33.982 28.642 33.7462H28.6416ZM26.3572 33.7462C24.6049 33.9829 23.2768 33.6732 22.4116 32.8289C20.9639 31.4148 20.9757 28.7856 21.1036 27.384C24.0325 28.5242 25.708 32.0648 26.3576 33.7462H26.3572ZM29.2185 52.0625H25.781C24.791 52.0611 23.8317 51.7185 23.0648 51.0923C22.2979 50.4662 21.7704 49.5948 21.571 48.625H33.4285C33.2292 49.5948 32.7016 50.4662 31.9348 51.0923C31.1679 51.7185 30.2086 52.0611 29.2185 52.0625Z" fill="#1D4A2D"/>
</svg>
