<svg width="55" height="56" viewBox="0 0 55 56" fill="none" xmlns="http://www.w3.org/2000/svg">
<path d="M27.0546 50.6008H20.8241C19.575 50.6012 18.3647 50.1668 17.4008 49.3723C16.437 48.5778 15.7796 47.4726 15.5416 46.2464L13.2316 37.9061C11.1777 32.0796 12.0714 28.9781 13.1852 27.402C13.6172 26.7737 14.1976 26.2616 14.8749 25.9111C15.5521 25.5607 16.3053 25.3826 17.0678 25.3928H22.1725C21.9104 23.2875 21.9823 21.154 22.3856 19.0712C23.6266 14.1066 26.3448 13.8892 27.4525 14.0267C29.1859 14.2398 30.7637 15.7497 30.7637 17.1935C30.6817 18.4903 30.8649 19.7902 31.3019 21.0139C31.739 22.2376 32.4208 23.3594 33.3057 24.3108C35.8924 26.8967 40.5588 27.5885 40.6052 27.5954C40.7728 27.6193 40.9341 27.676 41.0797 27.7622C41.2254 27.8485 41.3527 27.9625 41.4543 28.098C41.5559 28.2334 41.6298 28.3875 41.6718 28.5515C41.7138 28.7155 41.7231 28.8861 41.6992 29.0537C41.6753 29.2213 41.6186 29.3825 41.5324 29.5282C41.4461 29.6739 41.332 29.8012 41.1966 29.9027C41.0612 30.0043 40.9071 30.0782 40.7431 30.1203C40.5791 30.1623 40.4085 30.1716 40.2409 30.1477C40.0149 30.1159 34.6695 29.321 31.483 26.1344C30.3634 24.9547 29.4941 23.5607 28.9275 22.0363C28.3608 20.5118 28.1084 18.8885 28.1856 17.2639C28.0525 17.0603 27.8724 16.8917 27.6604 16.7724C27.4485 16.653 27.2109 16.5864 26.9678 16.5782C26.1445 16.6117 25.3668 17.7779 24.8864 19.6968C24.229 22.3265 24.901 26.43 24.9079 26.4704C24.9387 26.6552 24.929 26.8444 24.8792 27.0249C24.8295 27.2055 24.741 27.373 24.62 27.5159C24.4989 27.6588 24.3482 27.7736 24.1783 27.8524C24.0083 27.9311 23.8233 27.9718 23.636 27.9718H17.0678C16.7182 27.9622 16.3719 28.0414 16.0612 28.2021C15.7505 28.3627 15.4857 28.5996 15.2915 28.8904C14.787 29.6037 13.8151 31.8312 15.6774 37.0889C15.6877 37.1172 15.6963 37.1465 15.7049 37.1748L18.0398 45.6096C18.0501 45.6474 18.0587 45.6843 18.0656 45.7222C18.1833 46.3678 18.5239 46.9517 19.0281 47.372C19.5322 47.7922 20.1678 48.0222 20.8241 48.0218H27.0546C31.7984 48.0218 38.1277 46.9665 39.4975 45.5529C39.7361 45.3105 40.0609 45.1722 40.401 45.1682C40.7412 45.1643 41.0691 45.2949 41.3133 45.5316C41.5576 45.7684 41.6983 46.0921 41.7049 46.4322C41.7115 46.7723 41.5835 47.1012 41.3486 47.3472C38.7739 50.0027 29.9447 50.6 27.0538 50.6L27.0546 50.6008Z" fill="#1D4A2D"/>
<path d="M45.3122 50.6073H36.8173C36.4754 50.6073 36.1475 50.4715 35.9058 50.2298C35.664 49.988 35.5282 49.6602 35.5282 49.3183V27.375C35.5282 27.0331 35.664 26.7052 35.9058 26.4635C36.1475 26.2218 36.4754 26.0859 36.8173 26.0859H45.3122C45.6541 26.0859 45.982 26.2218 46.2237 26.4635C46.4655 26.7052 46.6013 27.0331 46.6013 27.375V49.3183C46.6013 49.6602 46.4655 49.988 46.2237 50.2298C45.982 50.4715 45.6541 50.6073 45.3122 50.6073ZM38.1064 48.0292H44.0232V28.6641H38.1064V48.0292ZM23.2529 11.4482C22.911 11.4482 22.5832 11.3124 22.3414 11.0706C22.0997 10.8289 21.9639 10.501 21.9639 10.1591V6.51367C21.9639 6.17179 22.0997 5.84391 22.3414 5.60217C22.5832 5.36042 22.911 5.22461 23.2529 5.22461C23.5948 5.22461 23.9227 5.36042 24.1644 5.60217C24.4062 5.84391 24.542 6.17179 24.542 6.51367V10.1591C24.542 10.501 24.4062 10.8289 24.1644 11.0706C23.9227 11.3124 23.5948 11.4482 23.2529 11.4482ZM29.8959 15.2174C29.6141 15.2176 29.3399 15.1255 29.1155 14.9551C28.891 14.7847 28.7285 14.5455 28.653 14.2739C28.5774 14.0024 28.5929 13.7137 28.6971 13.4518C28.8013 13.1899 28.9884 12.9694 29.2299 12.8241L32.3528 10.9446C32.4979 10.8544 32.6595 10.7939 32.8282 10.7667C32.9969 10.7395 33.1693 10.746 33.3354 10.786C33.5015 10.826 33.658 10.8986 33.7958 10.9997C33.9335 11.1007 34.0499 11.2281 34.138 11.3745C34.2261 11.5209 34.2842 11.6833 34.309 11.8523C34.3338 12.0214 34.3247 12.1937 34.2823 12.3592C34.2399 12.5247 34.165 12.6801 34.062 12.8164C33.959 12.9527 33.8299 13.0672 33.6823 13.1532L30.5593 15.0318C30.3591 15.1526 30.1297 15.2165 29.8959 15.2166V15.2174ZM16.61 15.2174C16.3761 15.2174 16.1467 15.1535 15.9465 15.0327L12.8227 13.1532C12.5351 12.9744 12.3295 12.6896 12.2502 12.3603C12.1709 12.0311 12.2244 11.6839 12.399 11.3937C12.5737 11.1036 12.8555 10.8939 13.1835 10.8098C13.5116 10.7258 13.8595 10.7742 14.1521 10.9446L17.276 12.8241C17.5174 12.9694 17.7045 13.1899 17.8087 13.4518C17.9129 13.7137 17.9284 14.0024 17.8529 14.2739C17.7773 14.5455 17.6149 14.7847 17.3904 14.9551C17.1659 15.1255 16.8918 15.2176 16.61 15.2174Z" fill="#1D4A2D"/>
</svg>
