<svg width="55" height="56" viewBox="0 0 55 56" fill="none" xmlns="http://www.w3.org/2000/svg">
<path d="M28.4546 43.1323C28.2454 43.132 28.0432 43.0573 27.8841 42.9214C27.7251 42.7855 27.6196 42.5975 27.5867 42.3909C27.5531 42.1808 27.5124 41.903 27.4657 41.5824C27.3287 40.6474 27.1412 39.3637 26.9058 38.2026C26.7408 37.3875 26.5961 36.8612 26.4834 36.5246C24.5061 37.8919 22.5179 37.6757 21.1379 37.211C20.9778 37.1571 20.8366 37.0581 20.7311 36.9261C20.6257 36.794 20.5605 36.6344 20.5434 36.4663C20.517 36.2094 20.5621 35.9471 20.6187 35.6149C20.8354 34.3444 20.8772 33.3225 19.3235 32.6949C19.1942 32.6399 19.0622 32.5921 18.9302 32.5409C18.7982 32.4898 18.6734 32.4419 18.5452 32.3908C18.3285 32.3041 18.1552 32.1348 18.0633 31.9203C17.9714 31.7057 17.9685 31.4635 18.0552 31.2468C18.1419 31.0301 18.3112 30.8567 18.5257 30.7648C18.7402 30.6729 18.9825 30.67 19.1992 30.7567C19.3202 30.8051 19.4416 30.8524 19.5633 30.8986C19.7035 30.9536 19.8443 31.0086 19.9824 31.0636C21.2655 31.5817 22.0663 32.4188 22.3644 33.5524C22.5773 34.3642 22.4788 35.154 22.3848 35.726C24.3736 36.111 25.5682 35.0517 25.9889 34.681C26.1418 34.5457 26.4586 34.2641 26.9283 34.3906C27.9618 34.6661 28.4513 36.1583 29.2048 41.3277C29.251 41.6423 29.2906 41.9146 29.3225 42.1131C29.3422 42.2389 29.3344 42.3674 29.2997 42.4899C29.2651 42.6124 29.2043 42.7259 29.1217 42.8227C29.039 42.9195 28.9364 42.9973 28.8209 43.0507C28.7054 43.1042 28.5797 43.132 28.4524 43.1323H28.4546ZM27.5421 31.2176C27.4171 31.2177 27.2923 31.2049 27.1698 31.1797C26.2529 30.9872 25.7948 30.1836 25.572 29.7975L24.9241 28.6662C24.7151 28.7762 24.4594 28.9043 24.1464 28.9494C23.4237 29.0539 22.7549 28.6865 22.1593 27.8582L21.4773 26.9111C21.4098 26.8173 21.3614 26.711 21.335 26.5984C21.3086 26.4858 21.3046 26.3691 21.3233 26.255C21.361 26.0245 21.4887 25.8185 21.6783 25.6822C21.8679 25.5459 22.104 25.4905 22.3344 25.5282C22.5649 25.5659 22.771 25.6936 22.9073 25.8832L23.5893 26.8303C23.7686 27.0794 23.8775 27.1674 23.9242 27.1971C23.9825 27.174 24.076 27.1245 24.1442 27.0871C24.4808 26.9089 25.1078 26.5773 25.7755 26.97C26.0907 27.1559 26.248 27.4298 26.3321 27.575L27.1021 28.9192C27.1731 29.0435 27.3903 29.423 27.5328 29.4527C27.5933 29.4659 27.7528 29.3977 27.8562 29.2668C28.0019 29.0836 28.0932 28.8163 28.1983 28.5072C28.2142 28.4594 28.2307 28.4121 28.2467 28.3653C28.3149 28.1701 28.4936 27.6542 29.0288 27.4061C29.3087 27.2774 29.8829 27.1388 30.615 27.6377C30.8482 27.802 31.0722 27.979 31.286 28.1679C31.486 28.3504 31.7009 28.516 31.9284 28.6629C32.7017 29.1227 33.8963 28.9852 34.5376 28.3626C34.6198 28.2792 34.7179 28.213 34.826 28.168C34.9342 28.1229 35.0502 28.1 35.1674 28.1004C35.2845 28.1008 35.4004 28.1246 35.5082 28.1703C35.616 28.2161 35.7136 28.283 35.7953 28.367C35.8769 28.451 35.941 28.5504 35.9837 28.6595C36.0264 28.7686 36.0469 28.8851 36.044 29.0022C36.0411 29.1193 36.0149 29.2347 35.9668 29.3415C35.9187 29.4483 35.8498 29.5445 35.7641 29.6243C34.559 30.7958 32.4789 31.0383 31.0286 30.1743C30.7137 29.9791 30.4163 29.757 30.1398 29.5104C30.0259 29.4131 29.9159 29.3196 29.8098 29.2354C29.6827 29.6017 29.526 29.9999 29.2312 30.3695C28.8 30.9063 28.1669 31.2176 27.5421 31.2176ZM33.7148 40.6452C33.5829 40.6452 33.4526 40.6155 33.3337 40.5584C33.2148 40.5013 33.1103 40.4182 33.0278 40.3152C32.85 40.1033 32.6607 39.9013 32.4608 39.7102C31.9031 39.1574 31.2711 38.531 31.0594 37.5168C30.9813 37.1505 31.0044 36.8298 31.1248 36.54C31.4152 35.8475 32.1044 35.704 32.331 35.6567L32.6956 35.5808C32.1269 34.736 32.4591 33.5403 33.0949 32.9144C33.5971 32.4194 34.3 32.1658 35.1299 32.1818C35.3549 32.1856 35.5655 32.206 35.769 32.2252C35.9725 32.2445 36.1656 32.2626 36.3427 32.2621C36.4583 32.2609 36.5729 32.2826 36.6801 32.3257C36.7873 32.3689 36.885 32.4327 36.9675 32.5136C37.0501 32.5945 37.1158 32.6909 37.1611 32.7972C37.2064 32.9035 37.2303 33.0177 37.2315 33.1333C37.2326 33.2489 37.211 33.3635 37.1679 33.4707C37.1247 33.5779 37.0609 33.6756 36.98 33.7581C36.8991 33.8407 36.8027 33.9064 36.6964 33.9517C36.5901 33.997 36.4758 34.0209 36.3603 34.0221C36.1065 34.0214 35.8529 34.0067 35.6007 33.9781C35.4225 33.961 35.2548 33.9445 35.0975 33.9418C34.57 33.9319 34.388 34.1106 34.3275 34.1689C34.2103 34.2844 34.1465 34.5132 34.1625 34.6089C34.1801 34.6271 34.2136 34.6579 34.2389 34.6821C34.3621 34.7912 34.4728 34.9137 34.5689 35.0473C34.9105 35.5423 34.9583 36.3376 34.449 36.8227C34.259 36.9957 34.0232 37.1102 33.7698 37.1527L32.8348 37.3501C32.9822 37.7522 33.3039 38.0717 33.6977 38.4617C33.9455 38.6987 34.1795 38.9497 34.3984 39.2135C34.502 39.3429 34.5669 39.4989 34.5858 39.6635C34.6046 39.8281 34.5766 39.9947 34.5049 40.1441C34.4333 40.2935 34.3209 40.4196 34.1807 40.508C34.0406 40.5964 33.8783 40.6433 33.7126 40.6435L33.7148 40.6452Z" fill="#1D4A2D"/>
<path d="M27.5002 43.1801C22.1394 43.1801 17.7773 38.8186 17.7773 33.4577C17.7773 28.0969 22.1394 23.7365 27.5002 23.7365C32.8611 23.7365 37.2231 28.098 37.2231 33.4594C37.2231 38.8208 32.8611 43.1801 27.5002 43.1801ZM27.5002 25.4948C23.1096 25.4948 19.5373 29.0671 19.5373 33.4577C19.5373 37.8484 23.1096 41.4201 27.5002 41.4201C31.8909 41.4201 35.4631 37.8484 35.4631 33.4577C35.4631 29.0671 31.8909 25.4965 27.5002 25.4965V25.4948ZM27.5002 15.03C27.2865 15.0295 27.0803 14.9513 26.92 14.81C26.8254 14.7269 24.5984 12.7453 24.5984 10.19C24.5984 7.63467 26.8254 5.65302 26.92 5.56997C27.0805 5.42918 27.2867 5.35156 27.5002 5.35156C27.7138 5.35156 27.92 5.42918 28.0805 5.56997C28.1751 5.65302 30.402 7.63467 30.402 10.19C30.402 12.7453 28.1751 14.7269 28.0805 14.81C27.9202 14.9513 27.714 15.0295 27.5002 15.03ZM27.5002 7.51697C27.0003 8.12692 26.3584 9.11802 26.3584 10.1916C26.3584 11.2652 27.0003 12.2563 27.5002 12.8657C28.0002 12.2563 28.642 11.2652 28.642 10.1916C28.642 9.11802 28.0002 8.12692 27.5002 7.51697Z" fill="#1D4A2D"/>
<path d="M27.6745 20.1797C27.5524 20.1797 27.4771 20.1764 27.4595 20.1753C27.242 20.1644 27.0363 20.0733 26.8821 19.9196C26.7279 19.7659 26.6361 19.5605 26.6246 19.3431C26.618 19.2188 26.4843 16.2807 28.34 14.4773C30.1836 12.6848 33.18 12.8135 33.3065 12.8196C33.524 12.8304 33.7297 12.9215 33.8839 13.0752C34.0381 13.2289 34.1298 13.4343 34.1414 13.6517C34.148 13.776 34.2811 16.7141 32.426 18.5181C30.8431 20.0565 28.4115 20.1797 27.6745 20.1797ZM32.3358 14.6203C31.5322 14.7099 30.3558 14.9745 29.5665 15.739C28.7965 16.487 28.5248 17.6024 28.4297 18.3746C29.2338 18.2849 30.4124 18.0209 31.1989 17.2559C31.9689 16.5079 32.2412 15.393 32.3358 14.6203Z" fill="#1D4A2D"/>
<path d="M27.3258 20.1796C26.5888 20.1796 24.1573 20.0564 22.5744 18.5181C20.7192 16.7141 20.8523 13.776 20.8589 13.6517C20.8706 13.4343 20.9624 13.2291 21.1166 13.0755C21.2708 12.9219 21.4764 12.8309 21.6938 12.8201C21.8209 12.814 24.8162 12.6853 26.6603 14.4778C28.516 16.2812 28.3823 19.2193 28.3757 19.3436C28.3642 19.561 28.2724 19.7664 28.1182 19.9201C27.964 20.0738 27.7583 20.1649 27.5409 20.1758C27.5233 20.1763 27.4452 20.1796 27.3258 20.1796ZM22.6646 14.6213C22.7597 15.3913 23.032 16.5073 23.8014 17.2547C24.5852 18.0159 25.7649 18.2816 26.5707 18.3751C26.4755 17.6051 26.2027 16.4897 25.4338 15.7417C24.6517 14.9788 23.4703 14.7137 22.6646 14.6224V14.6213Z" fill="#1D4A2D"/>
<path d="M27.5001 25.4965C27.2667 25.4965 27.0429 25.4038 26.8779 25.2388C26.7128 25.0737 26.6201 24.8499 26.6201 24.6165V14.15C26.6201 13.9166 26.7128 13.6928 26.8779 13.5278C27.0429 13.3627 27.2667 13.27 27.5001 13.27C27.7335 13.27 27.9573 13.3627 28.1224 13.5278C28.2874 13.6928 28.3801 13.9166 28.3801 14.15V24.6165C28.3801 24.8499 28.2874 25.0737 28.1224 25.2388C27.9573 25.4038 27.7335 25.4965 27.5001 25.4965ZM46.2705 47.8848H38.6541C38.4207 47.8848 38.1969 47.7921 38.0319 47.6271C37.8668 47.462 37.7741 47.2382 37.7741 47.0048C37.7741 46.7714 37.8668 46.5476 38.0319 46.3826C38.1969 46.2175 38.4207 46.1248 38.6541 46.1248H45.2156C45.17 45.4593 45.2156 44.6492 45.3504 43.6999C45.4851 42.7401 46.2001 40.7997 46.2815 40.5814C46.2876 40.5654 46.2942 40.5489 46.3013 40.5335L48.1251 36.3926C48.7246 34.637 48.6707 33.1476 48.5189 32.2087C48.3781 31.337 47.9392 30.0346 47.7742 29.5445L47.744 29.4549C45.907 23.9714 40.4757 18.962 39.4005 18.0088C38.8708 17.9467 38.2614 17.9654 37.9529 18.2937C37.613 18.6556 37.6355 19.369 37.6894 19.7419L42.5987 26.5498C42.7318 26.7392 42.7849 26.9734 42.7465 27.2017C42.7081 27.43 42.5813 27.6339 42.3935 27.7694C42.2058 27.9048 41.9722 27.9608 41.7435 27.9252C41.5147 27.8897 41.3092 27.7654 41.1715 27.5794L36.1467 20.612C36.0799 20.5192 36.0317 20.4145 36.0048 20.3034C35.9564 20.0999 35.5587 18.2838 36.6615 17.098C37.3737 16.3324 38.4721 16.0662 39.9263 16.306C40.0827 16.3319 40.2292 16.3995 40.3503 16.5018C40.4207 16.5612 42.0878 17.9753 44.0408 20.2017C46.6808 23.2129 48.4887 26.1378 49.4127 28.895L49.4418 28.9824C49.62 29.5104 50.0925 30.9124 50.2569 31.9282C50.4412 33.075 50.5083 34.8856 49.7768 37.0009C49.7691 37.024 49.7603 37.046 49.7504 37.0685L47.9227 41.2183C47.7143 41.782 47.1846 43.3006 47.0928 43.9479C46.8381 45.7338 47.0053 46.4554 47.0928 46.6864C47.1445 46.8197 47.163 46.9637 47.1466 47.1059C47.1302 47.248 47.0793 47.3839 46.9985 47.502C46.9177 47.62 46.8093 47.7166 46.6827 47.7833C46.5562 47.85 46.4152 47.8849 46.2722 47.8848H46.2705Z" fill="#1D4A2D"/>
<path d="M38.6159 47.8818C38.4588 47.8818 38.3044 47.8397 38.169 47.7599C38.0336 47.6801 37.9221 47.5655 37.8459 47.428C37.2596 46.3698 36.9659 45.1015 36.9758 43.6589C36.9852 42.3389 37.7007 40.5585 38.2408 39.3315L38.2876 39.2215C38.9245 37.7508 38.9993 36.5523 39.0026 36.4352V29.1317C39.0026 28.3496 39.3133 27.5995 39.8663 27.0464C40.4194 26.4933 41.1695 26.1826 41.9517 26.1826C42.7338 26.1826 43.4839 26.4933 44.037 27.0464C44.5901 27.5995 44.9008 28.3496 44.9008 29.1317V36.455C44.9008 36.6884 44.8081 36.9122 44.643 37.0772C44.478 37.2423 44.2542 37.335 44.0208 37.335C43.7874 37.335 43.5636 37.2423 43.3985 37.0772C43.2335 36.9122 43.1408 36.6884 43.1408 36.455V29.1317C43.1408 28.8163 43.0155 28.5139 42.7925 28.2909C42.5695 28.0679 42.267 27.9426 41.9517 27.9426C41.6363 27.9426 41.3339 28.0679 41.1109 28.2909C40.8879 28.5139 40.7626 28.8163 40.7626 29.1317V36.4792C40.7626 36.5424 40.7109 38.0522 39.9007 39.9238L39.8507 40.0377C39.1159 41.7141 38.7408 42.9362 38.7358 43.6677C38.7287 44.804 38.9476 45.7813 39.3859 46.5728C39.4601 46.7067 39.498 46.8578 39.496 47.0109C39.4939 47.164 39.4519 47.314 39.3741 47.4459C39.2964 47.5778 39.1855 47.6872 39.0525 47.7631C38.9196 47.8391 38.7691 47.879 38.6159 47.879V47.8818Z" fill="#1D4A2D"/>
<path d="M48.2792 50.6469H36.3305C36.0971 50.6469 35.8733 50.5541 35.7082 50.3891C35.5432 50.2241 35.4505 50.0003 35.4505 49.7669V47.002C35.4505 46.7686 35.5432 46.5448 35.7082 46.3798C35.8733 46.2147 36.0971 46.122 36.3305 46.122H48.2792C48.5126 46.122 48.7365 46.2147 48.9015 46.3798C49.0665 46.5448 49.1592 46.7686 49.1592 47.002V49.7669C49.1592 50.0003 49.0665 50.2241 48.9015 50.3891C48.7365 50.5541 48.5126 50.6469 48.2792 50.6469ZM37.2105 48.8869H47.3992V47.882H37.2105V48.8869ZM16.3457 47.8848H8.72928C8.58659 47.8851 8.44594 47.8508 8.31947 47.7847C8.19299 47.7187 8.08448 47.6228 8.00329 47.5055C7.9221 47.3881 7.87066 47.2528 7.85342 47.1111C7.83617 46.9695 7.85363 46.8258 7.90428 46.6924C7.98953 46.4669 8.16113 45.748 7.90428 43.949C7.81243 43.3011 7.28223 41.7825 7.07433 41.2188L5.24943 37.0685C5.23953 37.0465 5.23073 37.0239 5.22303 37.0014C4.49153 34.885 4.55863 33.0749 4.74343 31.9287C4.90843 30.909 5.38143 29.5054 5.55963 28.9763L5.58768 28.8944C6.51113 26.1378 8.31843 23.2129 10.959 20.2044C12.9115 17.978 14.5791 16.5639 14.6489 16.5051C14.7701 16.4028 14.9166 16.3351 15.073 16.3093C16.5277 16.0689 17.6261 16.3351 18.3383 17.1007C19.4411 18.2865 19.044 20.1026 18.995 20.3061C18.9682 20.4172 18.92 20.522 18.8531 20.6147L13.8294 27.5782C13.6917 27.7642 13.4862 27.8885 13.2574 27.9241C13.0287 27.9596 12.7951 27.9036 12.6074 27.7682C12.4196 27.6328 12.2928 27.4288 12.2544 27.2005C12.216 26.9722 12.2691 26.738 12.4022 26.5486L17.3109 19.7413C17.3659 19.3722 17.3874 18.6567 17.0469 18.2937C16.7384 17.9637 16.129 17.9466 15.5988 18.0088C14.5246 18.9614 9.09283 23.9708 7.25638 29.4543L7.22723 29.539C7.06223 30.0301 6.62223 31.3336 6.48088 32.2092C6.32908 33.1497 6.27518 34.6369 6.87468 36.3931L8.69848 40.5335C8.70508 40.5494 8.71168 40.5654 8.71773 40.5819C8.79858 40.8019 9.51248 42.739 9.64943 43.7009C9.78473 44.6491 9.82928 45.4609 9.78418 46.1248H16.3457C16.5791 46.1248 16.8029 46.2175 16.9679 46.3825C17.133 46.5475 17.2257 46.7714 17.2257 47.0048C17.2257 47.2381 17.133 47.462 16.9679 47.627C16.8029 47.792 16.5791 47.8848 16.3457 47.8848Z" fill="#1D4A2D"/>
<path d="M16.3849 47.882C16.2317 47.882 16.0812 47.8421 15.9483 47.7661C15.8153 47.6902 15.7044 47.5808 15.6267 47.4489C15.5489 47.317 15.5069 47.167 15.5048 47.0139C15.5028 46.8608 15.5407 46.7098 15.6149 46.5758C16.0549 45.7849 16.2716 44.807 16.265 43.6701C16.2595 42.9364 15.8849 41.7149 15.1501 40.0401L15.1006 39.9263C14.2899 38.0563 14.2399 36.5443 14.2382 36.4811C14.2382 36.4728 14.2382 36.4651 14.2382 36.4569V29.132C14.2315 28.8211 14.1034 28.5252 13.8811 28.3077C13.6589 28.0902 13.3604 27.9684 13.0494 27.9684C12.7385 27.9684 12.4399 28.0902 12.2177 28.3077C11.9955 28.5252 11.8673 28.8211 11.8606 29.132V36.4552C11.8606 36.6886 11.7679 36.9124 11.6028 37.0775C11.4378 37.2425 11.214 37.3352 10.9806 37.3352C10.7472 37.3352 10.5234 37.2425 10.3583 37.0775C10.1933 36.9124 10.1006 36.6886 10.1006 36.4552V29.132C10.1112 28.3569 10.4265 27.6171 10.9784 27.0727C11.5302 26.5284 12.2742 26.2231 13.0494 26.2231C13.8246 26.2231 14.5686 26.5284 15.1205 27.0727C15.6723 27.6171 15.9876 28.3569 15.9982 29.132V36.4387C16.0037 36.5421 16.0758 37.7455 16.716 39.2245L16.7627 39.3345C17.3006 40.561 18.0162 42.3446 18.0277 43.6608C18.0365 45.104 17.7434 46.3723 17.1571 47.4305C17.0805 47.5679 16.9685 47.6823 16.8326 47.7617C16.6968 47.8411 16.5422 47.8827 16.3849 47.882Z" fill="#1D4A2D"/>
<path d="M18.6691 50.6469H6.71984C6.48645 50.6469 6.26262 50.5542 6.09759 50.3892C5.93256 50.2241 5.83984 50.0003 5.83984 49.7669V47.0021C5.83984 46.7687 5.93256 46.5448 6.09759 46.3798C6.26262 46.2148 6.48645 46.1221 6.71984 46.1221H18.6691C18.9025 46.1221 19.1264 46.2148 19.2914 46.3798C19.4564 46.5448 19.5491 46.7687 19.5491 47.0021V49.7669C19.5491 50.0003 19.4564 50.2241 19.2914 50.3892C19.1264 50.5542 18.9025 50.6469 18.6691 50.6469ZM7.59984 48.8869H17.7891V47.8821H7.59984V48.8869Z" fill="#1D4A2D"/>
</svg>
